<svg id="Layer_2" enable-background="new 0 0 24 24" height="512" viewBox="0 0 24 24" width="512" xmlns="http://www.w3.org/2000/svg"><g><g><path d="m21.5 21h-19c-.276 0-.5-.224-.5-.5s.224-.5.5-.5h19c.276 0 .5.224.5.5s-.224.5-.5.5z"/></g><g><path d="m13.338 17.526c-.133 0-.26-.053-.354-.146l-6.364-6.364c-.098-.098-.15-.232-.146-.37.005-.138.066-.269.171-.36l9.905-8.667c.986-.862 2.488-.813 3.414.114l2.304 2.303c.928.927.978 2.427.113 3.414l-8.667 9.906c-.091.104-.221.166-.359.17-.006 0-.011 0-.017 0zm-5.633-6.839 5.608 5.608 8.315-9.503c.519-.593.488-1.493-.068-2.049l-2.304-2.303c-.557-.557-1.455-.586-2.049-.068z"/></g><g><path d="m10.156 18.587c-.13 0-.258-.05-.354-.146l-4.242-4.243c-.152-.152-.19-.385-.094-.577l1.414-2.829c.124-.247.425-.346.671-.224.247.124.347.424.224.671l-1.253 2.506 3.733 3.733 2.506-1.253c.248-.122.547-.023.671.224.123.247.023.547-.224.671l-2.828 1.414c-.071.036-.148.053-.224.053z"/></g><g><path d="m7.63 19c-.128 0-.256-.049-.354-.146-.195-.195-.195-.512 0-.707l1.47-1.47c.195-.195.512-.195.707 0s.195.512 0 .707l-1.47 1.47c-.097.097-.225.146-.353.146z"/></g><g><path d="m3.38 19c-.128 0-.256-.049-.354-.146-.195-.195-.195-.512-.001-.707l3.59-3.6c.195-.196.513-.195.708-.001.195.195.195.512.001.707l-3.59 3.6c-.097.098-.226.147-.354.147z"/></g><g><path d="m7.63 19h-4.25c-.276 0-.5-.224-.5-.5s.224-.5.5-.5h4.25c.276 0 .5.224.5.5s-.224.5-.5.5z"/></g></g></svg>