<?xml version="1.0" ?><!DOCTYPE svg  PUBLIC '-//W3C//DTD SVG 1.1//EN'  'http://www.w3.org/Graphics/SVG/1.1/DTD/svg11.dtd'><svg height="100%" style="fill-rule:evenodd;clip-rule:evenodd;stroke-linejoin:round;stroke-miterlimit:1.41421;" version="1.1" viewBox="0 0 128 128" width="100%" xml:space="preserve" xmlns="http://www.w3.org/2000/svg" xmlns:serif="http://www.serif.com/" xmlns:xlink="http://www.w3.org/1999/xlink"><rect height="128" id="Star" style="fill:none;" width="128" x="0.616" y="0.21"/><path d="M64.701,17.735c1.714,0.048 3.331,1.063 4.113,2.586c4.219,8.556 7.884,17.391 12.416,25.786c0.107,0.184 0.284,0.309 0.494,0.347c9.426,1.424 18.906,2.468 28.34,3.836c3.341,0.543 5.347,5.208 2.593,7.985c-6.839,6.65 -14.106,12.87 -20.687,19.777c-0.142,0.159 -0.206,0.366 -0.177,0.577c1.548,9.407 3.508,18.741 5.109,28.139c0.526,3.398 -3.422,6.631 -6.794,4.933c-8.431,-4.463 -16.599,-9.438 -25.2,-13.563c-0.196,-0.086 -0.412,-0.083 -0.604,0.01c-8.465,4.382 -16.756,9.093 -25.181,13.553c-3.042,1.531 -7.372,-1.195 -6.793,-4.933c1.601,-9.405 3.841,-18.705 5.112,-28.161c0.021,-0.213 -0.049,-0.417 -0.196,-0.572c-6.782,-6.698 -13.838,-13.115 -20.672,-19.76c-2.434,-2.455 -1.004,-7.4 2.594,-7.985c9.441,-1.369 18.977,-2.117 28.36,-3.84c0.209,-0.045 0.382,-0.174 0.484,-0.361c4.263,-8.527 8.189,-17.218 12.406,-25.768c0.807,-1.574 2.498,-2.602 4.283,-2.586Zm-0.097,4c-0.252,0.007 -0.479,0.144 -0.602,0.364c-4.521,8.371 -8.255,17.145 -12.382,25.717c-0.674,1.348 -1.963,2.31 -3.452,2.584c-9.436,1.425 -18.914,2.561 -28.371,3.841c-0.514,0.069 -0.797,0.772 -0.426,1.174c6.574,6.88 13.757,13.15 20.635,19.725c1.074,1.06 1.59,2.587 1.389,4.08c-1.55,9.416 -3.408,18.779 -5.113,28.168c-0.099,0.543 0.492,0.996 0.984,0.769c8.574,-4.126 16.758,-9.019 25.136,-13.529c1.356,-0.702 2.781,-0.794 4.31,-0.061c8.476,4.388 16.809,9.046 25.213,13.57c0.474,0.255 1.096,-0.164 1.032,-0.7c-1.284,-9.429 -3.399,-18.725 -5.1,-28.087c-0.248,-1.506 0.098,-2.883 1.275,-4.118c6.79,-6.706 13.796,-13.19 20.695,-19.784c0.383,-0.367 0.186,-1.093 -0.345,-1.2c-9.364,-1.691 -18.859,-2.553 -28.288,-3.829c-1.491,-0.225 -2.805,-1.153 -3.524,-2.486c-4.268,-8.535 -8.28,-17.195 -12.419,-25.793c-0.122,-0.253 -0.37,-0.408 -0.647,-0.405Z" style="fill-rule:nonzero;"/></svg>