<?xml version="1.0" ?><svg id="Icons" style="enable-background:new 0 0 32 32;" version="1.1" viewBox="0 0 32 32" xml:space="preserve" xmlns="http://www.w3.org/2000/svg" xmlns:xlink="http://www.w3.org/1999/xlink"><g><path d="M3,5h26c0.6,0,1-0.4,1-1s-0.4-1-1-1H3C2.4,3,2,3.4,2,4S2.4,5,3,5z"/><path d="M29,9H3c-0.6,0-1,0.4-1,1s0.4,1,1,1h26c0.6,0,1-0.4,1-1S29.6,9,29,9z"/><path d="M29,15H3c-0.6,0-1,0.4-1,1s0.4,1,1,1h26c0.6,0,1-0.4,1-1S29.6,15,29,15z"/><path d="M29,21H3c-0.6,0-1,0.4-1,1s0.4,1,1,1h26c0.6,0,1-0.4,1-1S29.6,21,29,21z"/><path d="M29,27H3c-0.6,0-1,0.4-1,1s0.4,1,1,1h26c0.6,0,1-0.4,1-1S29.6,27,29,27z"/></g></svg>